<?xml version="1.0" standalone="no"?>
<!DOCTYPE svg PUBLIC "-//W3C//DTD SVG 20010904//EN"
 "http://www.w3.org/TR/2001/REC-SVG-20010904/DTD/svg10.dtd">
<svg version="1.0" xmlns="http://www.w3.org/2000/svg"
 width="2000.000000pt" height="1600.000000pt" viewBox="0 0 2000.000000 1600.000000"
 preserveAspectRatio="xMidYMid meet">

<g transform="translate(0.000000,1600.000000) scale(0.100000,-0.100000)"
fill="#000000" stroke="none">
<path d="M13181 14060 c-81 -89 -82 -90 -52 -90 22 0 56 19 121 67 l90 66 -22
24 c-12 12 -29 23 -38 23 -9 0 -54 -40 -99 -90z"/>
<path d="M7051 14122 c-9 -16 -176 -398 -257 -585 l-34 -78 36 3 c36 3 37 5
72 91 l36 87 141 0 141 0 36 -87 35 -88 62 -3 c33 -2 61 0 61 4 0 4 -66 157
-146 340 -87 197 -152 334 -160 334 -7 0 -18 -8 -23 -18z m53 -285 l65 -157
-124 0 -125 0 9 23 c5 12 30 72 55 132 25 61 46 123 46 139 0 16 2 27 5 24 3
-2 34 -75 69 -161z"/>
<path d="M9180 14010 c0 -80 -4 -130 -10 -130 -5 0 -10 4 -10 9 0 15 -60 31
-115 31 -90 0 -151 -62 -176 -178 -12 -61 -1 -148 27 -207 38 -81 156 -109
241 -59 24 14 41 29 38 35 -14 22 14 6 45 -26 38 -39 50 -42 86 -19 l25 17
-23 24 c-23 24 -23 27 -26 329 l-3 304 -49 0 -50 0 0 -130z m-30 -155 l30 -16
0 -139 c0 -147 -2 -154 -52 -181 -55 -29 -79 -30 -108 0 -68 68 -68 249 1 322
31 34 81 39 129 14z"/>
<path d="M11700 13800 l0 -340 50 0 50 0 0 174 0 175 32 23 c35 24 99 31 119
11 20 -20 29 -88 29 -235 l0 -148 50 0 50 0 0 158 c-1 86 -5 177 -9 201 -13
64 -47 93 -115 99 -48 4 -62 0 -108 -25 l-53 -30 3 138 3 139 -50 0 -51 0 0
-340z"/>
<path d="M13792 14088 c-7 -7 -12 -24 -12 -38 0 -35 17 -50 57 -50 24 0 37 7
49 25 15 23 15 27 0 50 -18 28 -72 35 -94 13z"/>
<path d="M12871 13913 c-19 -10 -49 -32 -66 -49 l-32 -32 1 37 c1 35 0 36 -41
39 l-43 3 0 -225 0 -226 55 0 55 0 0 168 0 167 34 23 c19 13 53 29 74 35 42
13 42 13 42 52 0 30 -28 33 -79 8z"/>
<path d="M13630 13911 c-19 -11 -46 -31 -59 -45 -32 -34 -36 -33 -36 7 0 30
-2 32 -37 35 l-38 3 0 -225 0 -226 50 0 50 0 0 168 0 167 34 23 c19 13 53 29
74 35 42 13 42 13 42 52 0 31 -28 33 -80 6z"/>
<path d="M7521 13898 c-55 -29 -81 -75 -81 -143 0 -52 27 -110 55 -121 12 -5
8 -15 -20 -45 -40 -45 -45 -82 -15 -114 l20 -22 -24 -13 c-33 -17 -59 -73 -51
-109 14 -64 87 -96 204 -89 88 5 142 29 189 83 36 40 45 67 40 116 -4 49 -53
70 -172 76 -119 5 -136 9 -136 31 0 33 42 62 90 62 56 0 127 34 151 74 16 24
19 46 17 100 -3 64 -1 70 20 79 15 7 22 17 20 31 -2 17 -9 21 -38 19 -56 -4
-81 -3 -155 3 -61 4 -76 2 -114 -18z m134 -32 c30 -30 48 -95 39 -143 -8 -45
-44 -83 -78 -83 -29 0 -71 47 -81 90 -16 73 25 160 75 160 12 0 32 -11 45 -24z
m112 -437 c30 -11 29 -30 -3 -69 -60 -71 -188 -98 -239 -50 -30 29 -33 77 -6
111 18 23 23 24 122 21 56 -2 113 -8 126 -13z"/>
<path d="M8025 13901 c-100 -46 -151 -163 -125 -287 14 -69 62 -125 125 -150
57 -21 165 -16 220 11 45 23 62 57 23 49 -102 -21 -123 -23 -157 -14 -50 13
-97 65 -111 122 -20 79 -22 78 155 78 154 0 155 0 155 23 0 67 -44 143 -101
172 -39 21 -135 19 -184 -4z m138 -58 c19 -18 47 -72 47 -93 0 -6 -39 -10
-105 -10 -58 0 -105 4 -105 9 0 24 24 69 52 98 26 27 34 30 60 22 17 -4 40
-16 51 -26z"/>
<path d="M8394 13904 l-21 -14 23 -47 c22 -43 24 -58 24 -215 l0 -168 50 0 50
0 2 177 3 177 34 23 c42 29 72 29 97 2 17 -19 19 -41 22 -200 l3 -179 50 0 49
0 0 180 c0 202 -8 238 -59 264 -16 9 -52 16 -80 16 -41 0 -57 -6 -95 -35 -50
-38 -56 -41 -56 -25 0 13 -51 59 -65 59 -5 0 -19 -7 -31 -15z"/>
<path d="M9495 13901 c-100 -46 -151 -163 -125 -287 23 -111 112 -171 237
-162 78 6 145 34 140 58 -2 8 -9 14 -17 12 -118 -27 -173 -20 -221 27 -28 28
-49 85 -49 134 l0 27 161 0 161 0 -7 43 c-10 58 -44 117 -84 144 -44 29 -137
31 -196 4z m141 -62 c23 -21 51 -86 41 -95 -2 -3 -52 -3 -110 -2 l-106 3 20
45 c27 63 63 90 102 79 17 -5 41 -18 53 -30z"/>
<path d="M10141 13894 c-54 -45 -58 -119 -9 -172 13 -13 53 -42 90 -63 37 -22
72 -48 78 -59 43 -80 -53 -138 -157 -95 -47 20 -55 19 -51 -7 4 -29 55 -46
137 -47 107 -2 181 50 181 126 0 34 -31 87 -62 106 -13 7 -49 29 -81 48 -68
39 -92 75 -77 114 14 38 36 41 112 15 37 -13 70 -21 72 -19 3 2 7 16 11 31 6
24 4 27 -32 37 -21 6 -70 11 -110 11 -62 0 -75 -3 -102 -26z"/>
<path d="M10585 13901 c-100 -46 -151 -163 -125 -287 14 -69 62 -125 125 -150
57 -21 165 -16 220 11 45 23 62 57 23 49 -102 -21 -123 -23 -157 -14 -50 13
-97 65 -111 122 -20 79 -22 78 155 78 154 0 155 0 155 23 0 67 -44 143 -101
172 -39 21 -135 19 -184 -4z m138 -58 c19 -18 47 -72 47 -93 0 -6 -39 -10
-105 -10 -58 0 -105 4 -105 9 0 24 24 69 52 98 26 27 34 30 60 22 17 -4 40
-16 51 -26z"/>
<path d="M12302 13905 c-97 -42 -142 -114 -142 -228 0 -146 76 -227 212 -227
138 1 231 83 245 216 11 104 -31 195 -107 234 -47 24 -158 27 -208 5z m147
-51 c79 -66 79 -264 1 -339 -82 -79 -179 5 -180 154 0 83 17 136 56 177 39 42
79 45 123 8z"/>
<path d="M13090 13914 c-52 -17 -90 -39 -90 -52 0 -11 8 -13 38 -8 108 19 136
19 165 -4 25 -20 27 -27 27 -89 l0 -67 -65 -11 c-149 -26 -215 -96 -171 -182
18 -33 54 -51 107 -51 44 0 117 32 126 56 4 11 14 6 44 -21 44 -39 55 -42 87
-19 l22 15 -22 32 c-21 29 -23 47 -28 182 -6 167 -12 189 -65 211 -33 13 -143
18 -175 8z m140 -304 c0 -57 -1 -60 -37 -85 -21 -14 -45 -25 -55 -25 -34 0
-63 75 -40 105 18 25 91 63 125 65 4 0 7 -27 7 -60z"/>
<path d="M14105 13901 c-85 -39 -135 -124 -135 -231 0 -135 83 -219 215 -220
149 0 245 100 245 254 -1 96 -49 177 -123 205 -45 17 -157 13 -202 -8z m163
-50 c34 -35 52 -96 52 -178 -1 -102 -57 -187 -125 -187 -72 0 -121 92 -113
213 11 148 109 228 186 152z"/>
<path d="M10950 13730 c0 -202 8 -238 59 -264 58 -30 165 -11 194 35 10 16 14
14 51 -17 45 -39 48 -40 81 -18 l24 16 -22 30 c-21 28 -22 42 -25 214 l-3 184
-50 0 -49 0 0 -179 0 -180 -34 -26 c-25 -19 -44 -25 -68 -23 -52 5 -58 28 -58
231 l0 177 -50 0 -50 0 0 -180z"/>
<path d="M13780 13685 l0 -225 55 0 55 0 0 225 0 225 -55 0 -55 0 0 -225z"/>
<path d="M11690 12849 c0 -11 4 -28 10 -38 6 -13 -1 -65 -25 -177 -18 -87 -39
-185 -45 -216 -10 -51 -14 -58 -36 -58 -26 0 -106 -48 -186 -113 -29 -23 -69
-54 -88 -68 -55 -41 -230 -216 -245 -245 -23 -44 -10 -81 45 -134 57 -55 77
-60 165 -44 79 14 104 28 211 117 136 113 243 241 245 293 1 29 1 29 11 -6 16
-56 4 -217 -21 -273 -27 -63 -83 -148 -143 -218 -26 -30 -48 -59 -48 -63 0 -9
-51 -71 -152 -184 -43 -47 -78 -92 -78 -100 0 -7 -4 -11 -9 -8 -13 8 -32 -79
-25 -112 4 -18 3 -23 -4 -14 -7 11 -11 8 -15 -10 -10 -34 -8 -45 4 -28 8 12
10 10 5 -10 -3 -14 -11 -49 -17 -77 -13 -56 -16 -58 -66 -44 -27 8 -31 7 -26
-7 15 -41 44 -51 65 -21 7 10 8 5 3 -16 -4 -16 -31 -136 -61 -265 -70 -302
-67 -288 -54 -270 8 13 10 12 10 -5 0 -47 -52 -242 -71 -269 -34 -45 -39 -77
-18 -111 44 -73 -27 -56 -187 47 -50 32 -100 58 -111 58 -39 0 -99 -59 -145
-143 -45 -81 -35 -139 33 -184 l41 -27 67 36 c36 20 95 48 131 63 36 15 120
54 187 86 68 33 124 59 126 59 24 0 473 278 526 326 2 1 -6 15 -17 31 -25 36
-48 100 -39 109 15 15 96 -84 89 -109 -3 -10 55 20 63 33 3 6 17 7 29 4 13 -3
29 0 37 8 16 15 135 49 143 40 3 -3 1 -11 -5 -19 -9 -10 -8 -13 0 -13 7 0 9
-4 6 -10 -8 -13 106 -148 147 -173 49 -31 147 -29 218 5 30 14 62 28 72 31 21
7 205 132 237 161 l24 21 -7 -30 c-18 -73 -70 -157 -131 -211 -34 -30 -67 -54
-72 -54 -6 0 -27 -18 -46 -40 -20 -21 -39 -35 -42 -30 -3 4 1 11 7 13 10 4 10
6 0 6 -8 1 -16 -8 -19 -19 -3 -12 -17 -23 -32 -26 -14 -3 -33 -9 -41 -15 -8
-5 -31 -17 -50 -27 -19 -9 -37 -20 -40 -24 -9 -12 -110 -78 -110 -72 0 3 -17
-7 -37 -23 -21 -17 -45 -33 -53 -36 -18 -8 -35 -20 -178 -111 -140 -91 -337
-230 -541 -383 -124 -93 -159 -124 -146 -129 10 -4 21 -1 25 7 5 7 12 10 16 6
4 -4 18 0 31 8 26 17 27 16 13 -19 -13 -35 0 -33 44 9 21 19 47 36 59 36 17 1
18 2 5 6 -16 4 -16 6 -4 19 8 8 19 14 24 14 6 0 13 7 16 16 3 8 9 13 14 10 11
-6 26 5 40 29 11 19 11 19 12 2 0 -23 -34 -74 -69 -104 -14 -13 -21 -23 -16
-23 28 0 125 127 129 167 1 20 7 27 19 25 9 -2 17 1 17 6 0 6 7 13 16 16 14 5
16 1 11 -31 l-6 -38 16 29 c10 19 18 25 22 17 4 -7 18 -13 30 -14 13 -1 20 -6
17 -14 -7 -18 4 -16 26 3 16 15 18 15 24 1 3 -9 12 -13 21 -10 13 5 14 0 8
-27 -7 -32 -6 -33 9 -17 23 22 43 22 25 0 -8 -10 -9 -14 -2 -10 6 4 14 3 18
-3 3 -5 1 -10 -4 -10 -8 0 -7 -6 1 -19 6 -10 18 -17 25 -14 8 3 13 -3 13 -16
0 -12 5 -21 11 -21 5 0 7 -5 4 -10 -4 -6 -12 -8 -18 -4 -7 3 -3 -2 8 -11 13
-12 16 -19 8 -22 -7 -2 -10 -10 -7 -17 3 -7 -7 -21 -21 -32 -34 -25 -133 -118
-120 -112 6 2 48 23 95 45 46 23 88 39 92 37 4 -3 8 -1 8 3 0 5 21 18 48 28
26 11 72 32 102 48 54 28 164 60 174 50 3 -3 14 9 25 27 27 44 143 92 216 88
l50 -3 -78 -47 c-43 -27 -80 -48 -83 -48 -11 0 -151 -99 -173 -123 -14 -16
-25 -43 -28 -71 -7 -57 19 -102 77 -135 73 -41 136 -18 333 120 53 38 97 65
97 60 0 -10 -43 -75 -76 -114 -13 -16 -24 -32 -24 -35 0 -8 60 -53 325 -242
110 -79 220 -160 245 -180 25 -20 60 -45 79 -54 18 -10 53 -37 77 -62 27 -27
44 -38 44 -28 0 8 5 12 10 9 6 -3 10 1 10 10 0 35 115 60 140 30 7 -8 16 -13
20 -10 9 5 24 65 20 80 -1 6 -3 24 -5 42 -3 24 0 30 11 26 8 -3 14 -2 14 2 0
12 -99 133 -126 154 -13 10 -24 23 -24 29 0 5 -10 16 -22 25 -38 24 -128 117
-128 131 0 7 -25 41 -56 77 -53 61 -80 99 -70 99 2 0 -8 13 -23 29 -15 16 -28
35 -29 43 -2 22 -7 42 -15 56 -5 6 -4 12 1 12 6 0 13 16 16 36 4 19 10 43 13
52 6 15 5 15 -10 3 -15 -12 -17 -12 -11 4 5 11 3 16 -2 12 -6 -4 -9 6 -6 23 3
18 -2 35 -12 45 -15 15 -16 15 -16 -2 0 -11 -4 -23 -8 -28 -5 -6 -7 -32 -4
-58 3 -41 7 -47 23 -42 10 4 19 2 19 -4 0 -15 -50 -51 -71 -51 -20 0 -26 15
-10 24 12 8 19 63 10 78 -5 7 0 26 11 43 11 17 19 40 19 50 -1 11 3 34 9 51 8
24 7 31 -4 31 -8 0 -14 -3 -14 -7 0 -3 -6 -14 -13 -24 -30 -41 -162 -24 -219
29 -13 11 -31 24 -40 28 -10 3 -18 11 -18 18 0 6 -6 9 -13 6 -13 -5 -60 27
-51 35 5 6 -49 48 -91 71 -16 9 -23 16 -15 17 18 1 -28 39 -48 40 -7 0 -10 5
-7 11 4 6 -2 13 -14 16 -12 3 -21 12 -21 19 0 8 -12 19 -26 24 -22 9 -25 15
-21 45 3 20 0 35 -5 35 -6 0 -7 -7 -4 -16 5 -14 4 -15 -9 -4 -14 11 -13 14 2
26 10 7 25 14 33 14 8 1 2 6 -15 12 -34 13 -47 24 -63 55 -16 29 -15 46 2 40
8 -3 17 -1 20 6 3 9 5 9 5 -1 1 -10 6 -9 24 2 12 8 40 15 62 14 68 0 72 1 53
16 -10 7 -18 21 -18 30 0 15 2 15 25 0 23 -15 25 -15 25 0 0 8 9 30 20 48 l20
33 0 -27 c0 -46 -19 -81 -68 -126 -26 -24 -37 -38 -26 -33 12 6 24 7 28 4 3
-3 6 -1 6 5 0 6 9 14 21 17 11 4 38 25 60 48 39 42 94 136 84 145 -3 3 -5 0
-5 -6 0 -7 -4 -12 -9 -12 -4 0 -6 11 -3 25 2 14 7 23 10 21 3 -3 11 -1 19 5
10 9 13 8 13 -1 0 -6 5 -10 12 -8 14 5 58 -35 58 -51 0 -6 7 -8 16 -4 14 5 15
1 10 -28 -4 -21 -3 -27 2 -15 7 17 10 16 21 -12 7 -18 18 -29 23 -26 6 4 6 9
2 13 -15 10 -14 29 1 35 11 4 15 -2 15 -22 1 -26 1 -26 15 -8 15 19 15 19 15
-1 0 -27 28 -39 37 -16 6 14 9 12 19 -12 10 -23 13 -25 14 -10 0 11 4 16 8 10
4 -5 29 -21 55 -35 27 -14 57 -33 67 -42 11 -10 24 -18 30 -18 5 0 10 -4 10
-9 0 -5 9 -12 19 -16 13 -4 18 -12 14 -28 -4 -18 -3 -19 7 -7 9 12 11 10 6
-10 -5 -26 -19 -147 -18 -165 0 -5 3 -20 5 -32 4 -16 -3 -27 -32 -48 -21 -14
-49 -37 -62 -51 -20 -21 -20 -24 -5 -18 15 6 17 4 11 -7 -4 -8 6 0 22 16 17
17 53 46 81 65 55 37 61 52 78 178 7 55 24 82 24 38 0 -17 6 -26 16 -26 9 0
14 7 12 18 -1 9 2 18 7 19 6 1 10 -12 10 -30 0 -17 4 -38 9 -46 7 -10 6 -12
-4 -6 -9 5 -10 2 -6 -12 4 -11 2 -33 -4 -48 -13 -35 -9 -39 24 -24 15 7 29 23
32 38 11 52 12 53 30 39 66 -53 134 -125 164 -173 43 -70 87 -124 197 -238 47
-49 89 -85 93 -80 4 4 19 44 33 88 14 44 42 125 62 180 20 55 43 126 51 158
19 79 32 101 48 87 8 -6 16 -23 19 -39 14 -70 118 -109 147 -56 7 13 10 31 7
39 -3 8 -2 18 2 21 5 3 3 25 -4 50 -8 26 -10 45 -5 45 6 0 10 5 10 11 0 6 -6
9 -14 6 -8 -3 -17 7 -24 29 -8 28 -7 37 9 55 10 12 19 28 19 36 0 7 4 13 10
13 14 0 35 83 21 88 -18 6 -23 65 -11 123 6 30 11 62 11 72 0 9 4 17 8 17 4 0
9 24 11 53 3 48 2 72 -2 154 -1 17 7 59 17 93 l19 62 38 -5 38 -5 0 1059 0
1059 -1340 0 -1340 0 0 -21z m1599 -559 c46 -6 97 -18 112 -26 35 -18 59 -62
58 -106 l-1 -33 -7 30 c-21 85 -51 101 -216 118 -101 11 -133 11 -162 1 -89
-31 -122 -78 -158 -226 -26 -108 -45 -155 -45 -112 0 27 58 231 75 263 17 34
63 77 95 90 33 13 146 13 249 1z m569 -66 c12 -8 22 -21 22 -29 0 -22 -17 -18
-23 5 -5 18 -14 20 -81 20 -69 0 -77 -2 -101 -27 -14 -16 -33 -54 -42 -86 -9
-31 -18 -55 -21 -53 -8 9 28 114 49 140 12 15 35 33 53 41 36 16 109 11 144
-11z m-58 -48 c0 -8 5 -16 11 -18 12 -4 -4 -73 -22 -92 -11 -13 -89 -9 -106 5
-14 12 -10 66 9 102 11 22 108 25 108 3z m90 -38 c-2 -27 -91 -314 -103 -332
-26 -38 -79 -59 -137 -54 -61 6 -90 30 -89 72 0 26 2 28 8 11 18 -44 45 -56
112 -53 58 3 65 6 84 33 11 17 38 97 60 178 25 91 44 147 52 147 7 0 13 -1 13
-2z m-304 -198 c-14 -47 -25 -79 -25 -71 -1 19 42 176 46 165 1 -5 -8 -47 -21
-94z m116 58 c-9 -9 -15 -9 -24 0 -9 9 -7 12 12 12 19 0 21 -3 12 -12z m-802
-127 c0 -10 11 -28 25 -41 30 -28 34 -51 4 -24 -34 30 -67 106 -39 89 6 -3 10
-14 10 -24z m120 -77 c0 -2 -13 -4 -30 -4 -16 0 -30 4 -30 8 0 5 14 7 30 4 17
-2 30 -6 30 -8z m198 -21 c-16 -2 -40 -2 -55 0 -16 2 -3 4 27 4 30 0 43 -2 28
-4z m-347 -73 c23 -13 26 -35 3 -26 -8 3 -12 2 -9 -4 10 -16 -11 -12 -25 5 -6
8 -9 19 -5 25 8 13 12 13 36 0z m34 -39 c-3 -6 -11 -11 -16 -11 -5 0 -4 6 3
14 14 16 24 13 13 -3z m485 13 c0 -8 -19 -13 -24 -6 -3 5 1 9 9 9 8 0 15 -2
15 -3z m489 -61 c2 -2 2 -5 -1 -8 -8 -8 -139 36 -133 45 4 7 119 -25 134 -37z
m-102 1 c-3 -3 -12 -4 -19 -1 -8 3 -5 6 6 6 11 1 17 -2 13 -5z m-2480 -346
c-3 -8 -6 -5 -6 6 -1 11 2 17 5 13 3 -3 4 -12 1 -19z m-27 -413 c-12 -53 -19
-103 -16 -111 3 -8 1 -12 -4 -9 -5 3 -11 -4 -14 -17 -16 -84 -120 -499 -126
-503 -4 -3 -10 -19 -14 -36 -3 -18 -8 -30 -11 -27 -3 3 40 184 95 402 55 218
100 400 100 403 0 4 3 3 6 0 4 -3 -3 -49 -16 -102z m1350 -665 c-7 -16 -20
-36 -31 -46 -18 -16 -19 -16 -19 1 0 10 7 26 15 35 12 13 13 23 6 43 -8 21 -6
28 12 40 21 14 22 13 25 -15 2 -17 -2 -43 -8 -58z m-37 20 c3 -11 1 -20 -4
-20 -5 0 -9 9 -9 20 0 11 2 20 4 20 2 0 6 -9 9 -20z m-214 -236 c2 -2 -3 -6
-12 -10 -9 -3 -24 1 -33 11 -15 15 -14 15 12 9 16 -4 31 -8 33 -10z m841 -168
c11 -11 1 -36 -14 -36 -7 0 -10 18 -6 57 3 45 5 50 8 23 2 -19 7 -39 12 -44z
m-247 -332 c-1 -5 -10 -19 -19 -31 -14 -19 -26 -23 -75 -23 -73 0 -76 15 -6
29 l52 10 -49 -4 c-62 -6 -53 4 16 20 58 13 84 13 81 -1z m-211 -36 c-7 -7
-12 -8 -12 -2 0 14 12 26 19 19 2 -3 -1 -11 -7 -17z m105 -44 c5 -16 -23 -48
-35 -40 -7 4 -12 16 -12 27 0 11 5 17 10 14 6 -3 10 -1 10 5 0 14 22 8 27 -6z
m-990 -119 c0 -22 -14 -18 -20 4 -3 13 0 18 7 15 7 -3 13 -11 13 -19z"/>
<path d="M9906 12828 c-50 -46 -133 -187 -195 -332 -54 -126 -63 -154 -58
-189 6 -44 31 -73 73 -83 92 -23 182 61 292 271 41 77 76 153 79 168 5 25 -3
37 -63 99 -89 90 -96 94 -128 66z"/>
<path d="M11196 12725 c4 -8 12 -15 20 -15 8 0 14 7 14 15 0 8 -9 15 -20 15
-13 0 -18 -5 -14 -15z"/>
<path d="M8625 12592 c-11 -1 -51 -32 -90 -67 -38 -36 -78 -68 -90 -71 -11 -4
-26 -15 -33 -25 -13 -19 -60 -37 -106 -41 -22 -2 -32 -10 -42 -35 -8 -17 -19
-35 -25 -38 -5 -4 -8 -13 -5 -21 3 -8 1 -14 -5 -14 -5 0 -2 -11 7 -25 25 -38
10 -48 -58 -41 -55 5 -64 3 -104 -25 -24 -16 -62 -55 -84 -85 -23 -29 -44 -54
-48 -54 -4 0 -29 -20 -57 -45 -27 -25 -58 -52 -68 -61 -17 -14 -41 -22 -92
-29 -11 -2 -22 -4 -25 -5 -3 -1 -9 -2 -13 -1 -4 1 -16 -3 -27 -9 -14 -7 -23
-6 -35 6 -12 13 -19 14 -28 5 -8 -8 -8 -14 1 -23 18 -18 15 -48 -5 -55 -10 -3
-26 -13 -36 -21 -9 -8 -27 -20 -40 -26 -13 -7 -23 -23 -25 -39 -2 -15 -8 -25
-13 -22 -5 4 -9 1 -9 -5 0 -6 -16 -26 -35 -45 -34 -33 -70 -40 -84 -16 -8 12
-70 22 -98 15 -12 -3 -43 -34 -69 -67 -77 -101 -139 -154 -199 -172 -29 -8
-59 -15 -67 -15 -7 0 -25 -6 -40 -14 -14 -8 -50 -19 -79 -25 -32 -7 -61 -21
-75 -36 -13 -14 -18 -25 -11 -25 22 0 67 -61 67 -90 0 -31 -48 -80 -78 -80
-25 0 -100 99 -86 113 11 11 -7 46 -26 52 -11 3 -35 3 -55 -1 -53 -10 -59 -36
-24 -104 46 -90 58 -179 31 -227 -18 -32 -43 -28 -83 13 -27 29 -121 98 -186
138 -10 6 -13 -425 -13 -2139 l0 -2146 704 3 c667 3 705 4 724 21 11 10 66
109 121 220 55 111 135 261 177 332 145 245 202 387 304 750 33 121 79 281
101 356 l40 136 -31 47 c-17 25 -51 58 -76 72 -55 32 -97 99 -92 146 3 30 0
34 -37 46 -50 16 -81 45 -95 88 -19 56 6 107 79 162 24 19 24 19 11 103 -9 56
-20 92 -33 106 -19 21 -19 28 -9 74 19 80 15 113 -19 171 -26 44 -33 69 -40
143 -4 50 -10 101 -13 115 -18 96 -18 146 3 193 12 27 21 62 21 78 0 25 17 48
94 125 52 52 103 94 113 94 10 0 26 7 36 14 18 14 23 36 8 36 -5 0 -7 18 -4
39 3 25 -2 62 -15 103 -21 65 -32 123 -38 193 -2 22 -9 74 -17 115 -8 49 -10
90 -5 120 5 25 6 68 2 95 -4 28 -8 55 -9 60 -2 23 -17 55 -26 55 -10 0 -8 28
4 47 4 6 3 14 -3 18 -15 9 -12 69 6 139 9 33 17 77 18 96 8 124 75 454 112
555 15 39 32 92 40 118 19 68 96 180 156 224 79 60 98 80 98 106 0 27 -13 35
-45 29z m-598 -836 c-3 -8 -1 -16 5 -18 14 -5 -11 -75 -29 -82 -17 -7 -17 10
0 18 6 3 3 4 -8 3 -11 -2 -19 -10 -17 -18 1 -8 -6 -4 -17 9 -11 12 -27 22 -38
22 -13 0 -15 2 -5 9 8 4 12 17 10 27 -2 15 2 18 20 16 12 -2 22 1 22 7 0 5 12
12 28 14 15 2 29 5 31 6 2 0 1 -5 -2 -13z m149 -994 c9 -13 21 -44 27 -70 10
-39 18 -49 52 -67 50 -25 57 -34 49 -65 -3 -14 -7 -43 -8 -65 -1 -33 -5 -40
-26 -45 -14 -4 -32 -3 -40 1 -8 4 -22 10 -31 12 -9 3 -26 26 -38 50 -12 25
-33 53 -47 62 -42 27 -65 55 -75 88 -12 44 -12 51 9 74 49 55 100 65 128 25z"/>
<path d="M9183 11745 c-18 -20 0 -65 26 -65 17 0 18 4 9 40 -11 43 -16 47 -35
25z"/>
<path d="M8604 11666 c-3 -14 -3 -29 0 -35 4 -5 2 -12 -2 -15 -5 -3 -9 -32 -8
-66 1 -33 -2 -60 -6 -60 -3 0 0 -26 9 -57 8 -32 16 -74 18 -93 3 -19 7 -46 10
-60 3 -14 12 -59 20 -100 31 -148 57 -254 68 -272 14 -22 40 -23 60 -3 8 8 18
11 21 7 4 -3 4 1 0 11 -3 9 -1 17 4 17 11 0 9 43 -5 105 -8 39 -10 52 -23 157
-11 95 -47 285 -56 299 -3 5 -8 22 -10 36 -3 15 -11 41 -18 58 -8 16 -19 45
-26 63 -15 39 -47 44 -56 8z"/>
<path d="M9146 11635 c-9 -13 -16 -29 -16 -35 0 -5 -4 -10 -10 -10 -5 0 -10
-13 -10 -30 0 -41 14 -38 34 8 9 20 21 45 26 54 23 41 2 53 -24 13z"/>
<path d="M9186 11614 c-4 -9 -4 -19 -2 -21 8 -8 26 8 26 23 0 19 -16 18 -24
-2z"/>
<path d="M9244 11586 c-1 -39 3 -49 40 -85 22 -22 76 -58 118 -80 42 -22 71
-42 65 -44 -7 -3 0 -10 16 -16 33 -13 35 -21 5 -15 l-23 5 22 -12 c18 -9 25
-8 37 4 9 9 25 19 37 22 11 4 18 9 16 12 -3 2 -15 0 -26 -7 -15 -8 -21 -8 -21
0 0 7 -9 9 -22 5 -15 -4 -19 -3 -10 3 9 6 6 12 -13 20 -14 7 -30 12 -36 12 -5
0 -15 5 -22 10 -7 6 -22 18 -35 28 -13 9 -24 24 -25 32 -1 9 -14 31 -29 50
-14 19 -29 50 -33 68 -4 18 -11 29 -17 26 -5 -3 -7 -18 -4 -33 5 -23 4 -24 -7
-8 -32 49 -32 49 -33 3z"/>
<path d="M9220 11591 c0 -6 4 -12 8 -15 5 -3 9 1 9 9 0 8 -4 15 -9 15 -4 0 -8
-4 -8 -9z"/>
<path d="M9582 11361 c-19 -12 14 -24 41 -15 11 3 17 2 14 -3 -10 -16 88 -36
135 -28 35 6 39 9 23 16 -11 4 -38 8 -61 8 -22 1 -63 8 -90 16 -27 8 -49 15
-49 15 0 0 -6 -4 -13 -9z"/>
<path d="M11162 11183 c1 -5 -4 -19 -11 -32 -8 -14 -15 -44 -16 -68 -4 -57 17
-57 35 0 19 58 20 107 3 107 -7 0 -12 -3 -11 -7z"/>
<path d="M10170 11083 c0 -12 -4 -24 -9 -27 -14 -9 -21 -64 -11 -91 6 -15 6
-26 0 -30 -19 -12 -10 -25 32 -45 23 -11 46 -20 51 -20 14 0 98 -61 93 -68 -5
-10 13 -56 20 -49 3 3 1 15 -6 26 -8 15 -8 21 0 21 6 0 2 13 -10 30 -12 16
-24 29 -28 28 -4 -1 -29 18 -55 42 l-49 45 7 74 c5 56 4 72 -5 66 -7 -4 -16
-1 -21 6 -6 11 -9 8 -9 -8z m20 -125 c0 -23 -3 -29 -11 -21 -6 6 -8 20 -4 32
9 30 15 26 15 -11z"/>
<path d="M10060 10981 c0 -20 6 -30 20 -34 14 -4 20 0 20 12 0 9 -9 24 -20 34
-19 16 -20 16 -20 -12z"/>
<path d="M10180 10819 c0 -5 5 -7 10 -4 6 3 10 8 10 11 0 2 -4 4 -10 4 -5 0
-10 -5 -10 -11z"/>
<path d="M10705 10630 c-25 -26 -34 -47 -15 -35 6 3 10 1 10 -5 0 -6 5 -8 11
-4 7 4 7 -1 -1 -16 -12 -22 -12 -22 -32 10 -14 24 -16 35 -8 40 12 7 -20 20
-50 20 -11 -1 -11 -3 3 -11 15 -9 16 -13 5 -26 -6 -8 -23 -19 -37 -25 -20 -7
-22 -11 -11 -18 11 -7 11 -11 1 -23 -10 -13 -9 -15 8 -10 12 3 21 9 21 14 0 5
5 9 11 9 6 0 9 -6 6 -14 -4 -10 2 -16 18 -18 24 -3 24 -4 -11 -28 -20 -13 -57
-27 -82 -30 -26 -3 -47 -11 -50 -19 -6 -18 57 -7 108 19 61 32 150 136 150
176 0 28 -24 26 -55 -6z"/>
<path d="M10327 10630 c-4 -15 0 -20 14 -20 22 0 25 13 5 29 -11 9 -15 7 -19
-9z"/>
<path d="M10478 10633 c7 -3 16 -2 19 1 4 3 -2 6 -13 5 -11 0 -14 -3 -6 -6z"/>
<path d="M10270 10602 c0 -5 14 -9 30 -9 20 0 26 3 18 9 -17 10 -48 10 -48 0z"/>
<path d="M10350 10581 c22 -14 101 -15 130 -3 20 9 9 11 -60 11 -53 0 -79 -3
-70 -8z"/>
<path d="M10391 10540 c9 -5 22 -23 29 -40 14 -34 31 -32 23 3 -6 26 -30 47
-52 47 -14 -1 -14 -2 0 -10z"/>
<path d="M10450 10534 c0 -46 73 -76 133 -52 15 6 26 16 24 22 -4 12 -57 17
-57 5 0 -15 -63 3 -80 23 -19 23 -19 23 -20 2z"/>
<path d="M12707 10263 c-4 -3 -7 -16 -6 -27 0 -19 1 -19 10 3 10 24 8 36 -4
24z"/>
<path d="M8417 10202 c-22 -4 -19 -31 5 -46 19 -12 23 -10 32 20 7 23 -7 33
-37 26z"/>
<path d="M8525 9930 c3 -5 8 -10 11 -10 2 0 4 5 4 10 0 6 -5 10 -11 10 -5 0
-7 -4 -4 -10z"/>
<path d="M8550 9866 c0 -2 7 -7 16 -10 8 -3 12 -2 9 4 -6 10 -25 14 -25 6z"/>
<path d="M8591 9808 c5 -10 14 -18 19 -18 6 0 10 8 10 18 0 11 -7 18 -19 18
-16 0 -17 -4 -10 -18z"/>
<path d="M13366 9772 c-22 -27 -24 -32 -7 -17 20 17 47 55 39 55 -2 0 -16 -17
-32 -38z"/>
<path d="M8645 9740 c-3 -5 1 -10 10 -10 9 0 13 5 10 10 -3 6 -8 10 -10 10 -2
0 -7 -4 -10 -10z"/>
<path d="M13181 9680 c-19 -17 -21 -21 -7 -26 22 -8 20 -42 -5 -89 l-21 -40
26 24 c31 29 52 91 41 118 -5 10 -7 21 -7 26 3 10 0 9 -27 -13z"/>
<path d="M13272 9660 c0 -14 2 -19 5 -12 2 6 2 18 0 25 -3 6 -5 1 -5 -13z"/>
<path d="M13088 9463 c-9 -2 -19 -11 -22 -20 -5 -11 -2 -13 11 -8 10 4 26 10
36 12 9 3 17 9 17 14 0 9 -13 10 -42 2z"/>
<path d="M14348 9424 c-14 -40 -18 -94 -20 -283 -2 -166 0 -235 8 -238 18 -6
36 228 32 411 l-3 159 -17 -49z"/>
<path d="M11070 9241 c-204 -140 -300 -208 -331 -236 -20 -18 -72 -56 -115
-85 -246 -165 -332 -233 -404 -317 -58 -68 -98 -146 -91 -176 1 -4 -5 -15 -14
-23 -21 -22 -19 -37 5 -31 24 6 38 -12 19 -23 -7 -5 -16 -7 -20 -4 -4 2 -10 0
-13 -5 -8 -12 55 -24 67 -12 5 5 16 7 23 4 8 -3 17 2 20 11 6 14 218 126 240
126 5 0 22 11 38 24 l30 23 -56 59 c-55 57 -56 60 -48 99 17 88 41 125 102
156 38 20 60 11 38 -16 -6 -8 -10 -38 -8 -72 3 -54 1 -58 -19 -61 -14 -2 -23
-10 -23 -21 0 -21 30 -113 40 -125 12 -13 202 93 208 116 3 13 7 16 12 8 6 -9
9 -9 15 0 4 7 -1 13 -14 17 -12 3 -21 12 -21 20 0 9 -36 52 -81 96 l-81 81 29
23 c15 13 46 35 68 50 22 15 58 42 81 60 23 18 45 33 51 33 5 0 27 16 48 36
35 32 40 34 46 17 4 -10 4 -22 1 -28 -3 -5 1 -4 9 3 20 19 34 14 16 -6 -9 -10
-16 -26 -15 -37 0 -17 -7 -64 -14 -93 -1 -4 2 -17 6 -30 5 -15 3 -29 -6 -39
-12 -15 -11 -15 10 -4 13 7 28 10 35 7 9 -3 9 -5 -1 -5 -8 -1 -10 -9 -6 -26 4
-17 1 -32 -9 -43 -8 -9 -20 -28 -27 -42 -13 -24 -12 -24 6 -10 10 8 34 27 53
43 48 41 206 106 257 107 11 0 24 4 30 9 5 5 32 16 60 24 74 22 152 57 157 71
3 7 -9 21 -26 31 -30 17 -227 163 -274 204 -13 11 -23 26 -23 35 0 24 -20 19
-80 -23z m-867 -838 c-7 -2 -19 -2 -25 0 -7 3 -2 5 12 5 14 0 19 -2 13 -5z
m-18 -33 c-3 -5 -1 -10 6 -10 7 0 10 -2 7 -5 -7 -8 -38 5 -38 16 0 5 7 9 16 9
8 0 12 -4 9 -10z"/>
<path d="M8300 9035 c0 -8 2 -15 4 -15 2 0 6 7 10 15 3 8 1 15 -4 15 -6 0 -10
-7 -10 -15z"/>
<path d="M11789 8537 c-54 -34 -107 -69 -119 -77 l-23 -16 29 1 c16 0 35 5 43
9 9 6 12 5 8 -1 -7 -10 64 -28 92 -24 13 2 13 0 1 -14 -12 -14 -12 -16 1 -15
29 5 50 0 44 -10 -4 -6 7 -10 24 -10 20 0 31 -5 31 -14 0 -16 21 -26 53 -26
20 0 20 -1 4 -17 -15 -16 -14 -18 21 -30 20 -7 45 -13 54 -13 9 0 23 -6 30
-12 7 -7 20 -14 28 -16 8 -2 23 -14 34 -28 17 -23 76 -61 76 -49 0 8 34 -11
115 -64 39 -25 107 -68 151 -96 107 -66 232 -149 267 -177 34 -27 76 -55 97
-64 8 -4 22 -12 30 -19 20 -16 113 -45 144 -45 14 0 28 -5 31 -11 4 -6 13 -8
21 -5 7 3 16 1 19 -4 10 -17 25 -11 25 9 0 30 -92 109 -136 116 -40 6 -104 33
-104 44 0 4 25 6 55 6 64 0 77 16 20 26 -22 4 -57 15 -77 23 -21 9 -38 14 -38
11 0 -2 -10 5 -22 17 -13 11 -187 129 -388 262 -287 189 -382 257 -444 318
-43 43 -84 78 -90 78 -6 -1 -54 -29 -107 -63z"/>
<path d="M13317 8424 c-3 -5 -2 -25 2 -44 l7 -35 7 28 c8 28 -5 68 -16 51z"/>
<path d="M11193 8192 c-128 -84 -192 -136 -193 -156 0 -18 2 -18 24 3 30 28
72 22 106 -15 13 -13 30 -24 37 -24 8 0 26 -12 41 -27 15 -15 52 -49 83 -74
31 -26 105 -96 165 -156 60 -60 126 -119 147 -132 39 -24 48 -35 20 -24 -10 4
-14 2 -10 -4 10 -15 56 -22 60 -9 2 7 25 -2 56 -21 29 -18 56 -33 61 -33 5 0
36 -16 69 -35 32 -19 65 -35 73 -35 22 0 84 -25 103 -40 9 -8 25 -15 34 -17
34 -5 107 -43 131 -67 13 -15 32 -26 42 -26 10 0 18 -4 18 -9 0 -5 14 -12 30
-16 17 -4 28 -11 24 -16 -3 -6 14 -8 42 -5 47 4 82 -6 96 -27 12 -20 36 11 30
41 -6 36 -53 85 -132 135 -36 23 -167 110 -292 192 -125 83 -262 172 -304 200
-43 27 -112 79 -154 115 -95 83 -295 289 -303 313 -9 25 -24 21 -104 -31z"/>
<path d="M13414 8196 c-10 -8 -15 -18 -11 -22 4 -4 15 0 24 9 22 21 12 31 -13
13z"/>
<path d="M10819 7912 c-65 -53 -114 -103 -128 -127 -12 -22 -53 -76 -91 -119
-39 -43 -70 -82 -70 -86 0 -10 69 -73 106 -97 23 -14 50 -18 139 -19 180 -2
171 0 186 -35 11 -28 10 -40 -11 -98 -14 -42 -21 -79 -17 -97 3 -16 -1 -43 -8
-61 -8 -18 -17 -54 -21 -80 -4 -26 -14 -59 -23 -73 -28 -42 -51 -99 -51 -125
0 -14 -6 -26 -12 -26 -7 -1 5 -5 27 -10 45 -9 1138 -12 1148 -3 3 3 -15 32
-39 64 -43 56 -51 62 -238 153 -106 53 -222 113 -257 134 -35 22 -106 61 -157
88 -103 54 -164 111 -283 266 -158 205 -199 276 -169 294 6 3 10 16 10 29 0
13 17 40 40 64 39 40 47 53 33 51 -5 0 -56 -39 -114 -87z"/>
<path d="M13125 7861 c-32 -15 -35 -20 -17 -20 12 -1 22 4 22 10 0 5 4 8 9 5
5 -3 14 1 21 9 16 19 14 19 -35 -4z"/>
<path d="M14251 7803 c-6 -16 -18 -62 -26 -103 -21 -109 -32 -141 -84 -240
-10 -19 -33 -71 -51 -115 -18 -44 -38 -93 -45 -110 -7 -16 -21 -57 -31 -90
-10 -33 -24 -67 -31 -76 -7 -9 -10 -19 -6 -22 3 -4 1 -7 -6 -7 -7 0 -10 -4 -6
-10 6 -9 -8 -40 -32 -70 -6 -8 -12 -18 -13 -22 0 -4 -2 -13 -4 -20 -18 -58
-17 -58 39 -58 41 0 57 4 65 18 11 16 11 16 6 0 -6 -20 10 -25 17 -5 4 9 7 9
15 -1 6 -9 29 -12 73 -10 l64 3 17 215 c9 118 24 312 32 430 9 118 19 239 22
268 7 58 2 66 -15 25z"/>
<path d="M13172 7720 c0 -19 2 -27 5 -17 2 9 2 25 0 35 -3 9 -5 1 -5 -18z"/>
<path d="M10327 7265 c-12 -11 -16 -26 -13 -39 19 -67 18 -105 -4 -149 -18
-35 -20 -48 -11 -65 16 -29 14 -88 -4 -122 l-16 -30 36 0 c34 0 49 20 25 35
-11 7 -9 31 7 60 18 35 23 85 11 105 -9 14 -9 25 0 45 15 32 14 87 -1 139 -12
38 -13 39 -30 21z"/>
<path d="M10042 6911 c-12 -34 2 -66 18 -41 12 19 13 70 1 70 -5 0 -14 -13
-19 -29z"/>
<path d="M9590 5875 l0 -275 30 0 30 0 0 275 0 275 -30 0 -30 0 0 -275z"/>
<path d="M10347 6143 c-4 -3 -7 -51 -7 -105 0 -54 -2 -98 -4 -98 -2 0 -21 7
-42 16 -110 46 -199 -35 -198 -181 0 -86 24 -139 75 -167 43 -24 98 -19 142
15 l33 25 33 -30 c29 -26 35 -28 48 -15 13 13 13 18 -1 45 -13 26 -16 71 -16
267 l0 235 -28 0 c-16 0 -32 -3 -35 -7z m-26 -223 c17 -10 19 -22 19 -130 l0
-120 -32 -20 c-21 -13 -46 -19 -68 -18 -30 3 -38 9 -57 48 -37 72 -26 177 24
232 18 20 82 24 114 8z"/>
<path d="M7690 5865 l0 -265 35 0 35 0 0 265 0 265 -35 0 -35 0 0 -265z"/>
<path d="M11126 6088 c-5 -41 -26 -419 -26 -465 0 -13 6 -23 14 -23 11 0 15
26 20 118 4 64 10 164 14 222 l7 105 100 -222 c55 -123 102 -223 105 -223 3 0
50 102 105 227 87 199 100 222 106 197 4 -16 10 -118 14 -226 l7 -198 39 0
c37 0 39 1 39 32 0 55 -20 410 -26 456 -5 41 -6 42 -43 42 l-37 0 -84 -192
c-46 -106 -86 -197 -90 -201 -4 -4 -48 81 -98 190 l-91 198 -35 3 c-34 3 -35
2 -40 -40z"/>
<path d="M12560 6091 c-8 -17 -7 -24 10 -41 28 -28 63 -11 58 28 -4 35 -51 44
-68 13z"/>
<path d="M8009 5940 l-44 -29 -25 24 c-44 42 -86 26 -56 -20 13 -19 16 -54 16
-170 l0 -145 35 0 35 0 0 144 0 144 43 21 c49 24 80 19 96 -15 6 -15 11 -81
11 -159 l0 -135 30 0 29 0 3 141 c3 138 4 142 28 160 41 29 73 33 101 11 23
-19 24 -26 27 -166 l4 -146 30 0 30 0 -4 153 c-2 125 -6 158 -21 180 -31 48
-110 48 -168 -1 -24 -20 -34 -23 -37 -13 -19 58 -94 68 -163 21z"/>
<path d="M8569 5961 c-69 -22 -93 -59 -26 -40 54 15 105 11 127 -11 23 -23 29
-118 8 -124 -7 -2 -40 -9 -72 -16 -101 -21 -146 -91 -97 -151 28 -35 95 -33
144 4 l36 27 33 -29 c30 -26 36 -28 52 -15 19 13 19 14 0 35 -16 18 -20 41
-24 150 -4 115 -7 131 -27 150 -24 24 -107 35 -154 20z m121 -240 c0 -45 -3
-51 -34 -70 -18 -12 -40 -21 -49 -21 -41 0 -64 73 -32 100 16 13 82 39 103 40
8 0 12 -16 12 -49z"/>
<path d="M8945 5956 c-37 -17 -80 -62 -94 -99 -15 -40 -14 -131 3 -170 30 -73
115 -110 195 -86 39 12 69 34 59 44 -2 2 -22 0 -43 -6 -91 -25 -165 37 -165
139 0 62 17 108 53 141 l26 24 61 -20 60 -20 0 24 c0 41 -91 58 -155 29z"/>
<path d="M9803 5953 c-52 -18 -61 -47 -11 -32 18 5 51 9 74 9 53 0 75 -24 82
-89 5 -54 6 -53 -73 -66 -125 -21 -175 -115 -90 -171 31 -20 75 -13 126 21
l37 24 23 -25 c40 -42 85 -25 55 21 -12 18 -16 50 -16 128 0 57 -5 119 -11
137 -20 56 -106 75 -196 43z m145 -230 c3 -37 -1 -44 -31 -67 -19 -14 -43 -26
-55 -26 -23 0 -52 34 -52 62 0 23 37 56 75 67 50 15 60 10 63 -36z"/>
<path d="M10563 5954 c-52 -19 -61 -48 -11 -33 49 14 101 11 126 -7 18 -12 22
-25 22 -70 0 -35 -4 -56 -12 -58 -7 -2 -40 -9 -72 -16 -119 -25 -158 -121 -67
-169 31 -17 79 -7 121 24 l34 25 31 -30 c27 -27 33 -29 50 -17 17 13 17 15 2
38 -13 18 -17 46 -17 114 -1 165 -22 206 -112 211 -31 2 -71 -3 -95 -12z m137
-234 c0 -46 -3 -52 -32 -70 -40 -24 -56 -25 -80 -3 -22 20 -24 66 -3 83 16 13
82 39 103 40 8 0 12 -16 12 -50z"/>
<path d="M11833 5954 c-52 -19 -61 -48 -11 -33 49 14 101 11 126 -7 18 -12 22
-25 22 -70 0 -35 -4 -56 -12 -58 -7 -2 -40 -9 -72 -16 -119 -25 -158 -121 -67
-169 31 -17 79 -7 121 24 l34 25 31 -30 c27 -27 33 -29 50 -17 17 13 17 15 2
38 -13 18 -17 46 -17 114 -1 165 -22 206 -112 211 -31 2 -71 -3 -95 -12z m137
-234 c0 -46 -3 -52 -32 -70 -40 -24 -56 -25 -80 -3 -22 20 -24 66 -3 83 16 13
82 39 103 40 8 0 12 -16 12 -50z"/>
<path d="M12145 5957 c-17 -13 -17 -15 -2 -38 14 -19 17 -50 17 -171 l0 -148
35 0 35 0 0 139 c0 139 0 140 26 160 32 25 76 27 98 5 13 -13 16 -42 16 -160
l0 -144 35 0 35 0 0 139 c0 76 -5 152 -11 169 -23 67 -105 80 -171 28 l-33
-25 -30 29 c-27 27 -33 29 -50 17z"/>
<path d="M12815 5956 c-89 -39 -131 -172 -86 -272 36 -78 112 -108 200 -79 30
10 51 23 51 31 0 11 -7 13 -27 7 -77 -22 -134 1 -169 69 -31 60 -4 178 49 213
23 15 29 15 80 -3 l55 -18 5 22 c3 18 -2 25 -26 34 -40 14 -95 12 -132 -4z"/>
<path d="M13585 5958 c-11 -6 -32 -22 -47 -36 l-28 -26 -6 32 c-5 25 -12 32
-30 32 l-24 0 0 -180 0 -180 30 0 30 0 0 129 0 130 33 25 c19 14 48 29 65 32
25 5 32 12 32 30 0 26 -21 31 -55 12z"/>
<path d="M13785 5956 c-38 -17 -80 -62 -94 -99 -6 -16 -11 -57 -11 -91 0 -69
20 -111 73 -150 37 -27 136 -29 185 -3 40 22 43 40 5 30 -113 -31 -203 24
-203 122 l0 35 125 0 c139 0 135 -2 115 71 -15 55 -60 91 -117 96 -28 2 -61
-3 -78 -11z m68 -30 c39 -16 63 -42 72 -78 l7 -28 -96 0 c-70 0 -96 3 -96 13
0 24 58 104 78 107 1 0 17 -6 35 -14z"/>
<path d="M9190 5806 c0 -149 1 -156 24 -183 33 -39 98 -39 147 -2 l35 27 36
-29 c32 -26 37 -27 49 -13 10 13 10 20 -4 44 -14 23 -17 55 -17 169 l0 141
-35 0 -35 0 0 -144 c0 -144 0 -145 -26 -165 -35 -28 -79 -27 -98 1 -13 18 -16
52 -16 165 l0 143 -30 0 -30 0 0 -154z"/>
<path d="M12560 5780 l0 -180 35 0 35 0 0 180 0 180 -35 0 -35 0 0 -180z"/>
<path d="M13060 5806 c0 -149 1 -156 24 -183 33 -39 98 -39 147 -2 l35 27 36
-29 c32 -26 37 -27 49 -13 10 13 10 20 -4 44 -14 23 -17 55 -17 169 l0 141
-35 0 -35 0 0 -144 c0 -144 0 -145 -26 -165 -35 -28 -79 -27 -98 1 -13 18 -16
52 -16 165 l0 143 -30 0 -30 0 0 -154z"/>
<path d="M9811 4960 c-34 -38 -56 -70 -49 -70 12 0 122 73 152 101 9 8 -18 38
-34 39 -3 0 -34 -31 -69 -70z"/>
<path d="M9230 4746 l0 -266 35 0 35 0 0 120 0 120 63 0 c83 0 132 15 174 54
67 61 52 169 -29 213 -25 13 -63 18 -155 21 l-123 4 0 -266z m229 208 c37 -31
48 -80 32 -135 -16 -54 -58 -79 -133 -79 l-58 0 0 114 c0 82 4 116 13 119 6 3
35 6 64 6 41 1 57 -4 82 -25z"/>
<path d="M11120 5003 c0 -4 -7 -118 -15 -253 -8 -135 -15 -251 -15 -257 0 -7
6 -13 14 -13 17 0 23 50 32 273 4 93 10 165 14 160 4 -4 49 -100 99 -213 51
-113 96 -209 100 -213 4 -4 52 94 107 218 54 124 102 225 105 225 4 0 10 -87
13 -192 9 -257 10 -258 52 -258 41 0 39 -21 22 303 l-12 227 -40 0 -41 0 -85
-196 c-46 -108 -87 -197 -90 -199 -4 -2 -47 85 -96 193 l-90 197 -37 3 c-20 2
-37 0 -37 -5z"/>
<path d="M11836 4971 c-32 -21 -52 -49 -42 -58 3 -4 15 2 26 12 19 17 22 17
78 0 55 -16 61 -16 90 -1 32 16 56 48 45 59 -3 4 -17 -2 -30 -13 -23 -18 -25
-18 -80 1 -31 10 -57 19 -57 19 -1 0 -14 -9 -30 -19z"/>
<path d="M9712 4829 c-51 -26 -77 -60 -93 -123 -16 -66 2 -145 42 -186 52 -52
147 -62 220 -24 39 20 37 35 -3 26 -118 -26 -184 13 -203 121 l-7 37 132 0
132 0 -7 37 c-21 116 -110 163 -213 112z m83 -23 c34 -15 57 -42 70 -83 6 -23
5 -23 -89 -23 -82 0 -96 2 -96 16 0 31 53 101 78 104 1 0 18 -6 37 -14z"/>
<path d="M10034 4841 c-50 -22 -70 -94 -39 -139 9 -12 37 -34 63 -49 69 -39
92 -63 92 -94 0 -54 -72 -75 -146 -44 -33 13 -35 13 -32 -3 4 -23 94 -47 143
-38 54 11 99 55 99 99 0 44 -27 75 -101 117 -29 16 -60 41 -69 55 -15 23 -15
27 0 50 20 30 46 31 103 5 42 -19 42 -18 49 2 3 11 1 25 -4 30 -14 14 -132 20
-158 9z"/>
<path d="M10571 4832 c-19 -9 -48 -34 -65 -55 -29 -36 -31 -44 -31 -122 0 -69
4 -89 21 -112 24 -33 97 -73 134 -73 47 0 130 30 130 46 0 11 -6 14 -16 10
-107 -41 -214 20 -214 123 l0 31 125 0 125 0 0 27 c0 41 -36 106 -69 126 -37
22 -97 22 -140 -1z m97 -35 c25 -12 52 -55 52 -82 0 -12 -16 -15 -95 -15 -52
0 -95 2 -95 5 0 21 32 75 54 93 27 21 39 21 84 -1z"/>
<path d="M11823 4833 c-52 -18 -61 -47 -11 -32 18 5 51 9 74 9 53 0 75 -24 82
-89 5 -54 6 -53 -73 -66 -125 -21 -175 -115 -90 -171 31 -20 75 -13 126 21
l37 24 23 -25 c40 -42 85 -25 55 21 -12 18 -16 50 -16 128 0 57 -5 119 -11
137 -20 56 -106 75 -196 43z m145 -230 c3 -37 -1 -44 -31 -67 -19 -14 -43 -26
-55 -26 -23 0 -52 34 -52 62 0 23 37 56 75 67 50 15 60 10 63 -36z"/>
<path d="M12225 4832 c-77 -37 -105 -86 -105 -186 0 -49 5 -70 23 -96 46 -69
107 -91 187 -70 82 22 140 104 140 200 0 45 -37 118 -72 144 -39 28 -122 32
-173 8z m116 -22 c27 -15 48 -60 55 -123 15 -125 -60 -215 -151 -181 -45 18
-72 158 -44 231 25 68 88 100 140 73z"/>
<path d="M12680 3805 c0 -58 -2 -105 -4 -105 -2 0 -23 7 -46 15 -54 19 -83 19
-121 -1 -63 -32 -99 -172 -68 -265 33 -96 134 -126 210 -62 l30 26 32 -31 c27
-26 34 -29 49 -18 16 12 16 15 -2 52 -18 35 -20 59 -20 266 l0 228 -30 0 -30
0 0 -105z m-25 -127 c25 -11 25 -13 25 -128 0 -116 0 -118 -26 -135 -15 -9
-43 -19 -63 -22 -30 -4 -40 0 -61 22 -21 23 -25 38 -28 104 -4 81 11 130 47
158 20 16 73 16 106 1z"/>
<path d="M8560 3625 l0 -265 35 0 35 0 0 130 0 130 85 0 c68 0 85 3 85 15 0
11 -18 15 -82 17 l-83 3 -3 97 -3 97 27 7 c27 7 151 -1 192 -12 19 -5 22 -2
22 20 l0 26 -155 0 -155 0 0 -265z"/>
<path d="M8930 3851 c-8 -17 -7 -24 10 -41 28 -28 63 -11 58 28 -4 35 -51 44
-68 13z"/>
<path d="M9185 3714 c-45 -23 -66 -45 -86 -89 -22 -48 -25 -142 -5 -188 34
-84 126 -112 200 -62 l36 24 0 -104 0 -105 35 0 35 0 0 265 c0 146 -4 265 -8
265 -4 0 -13 -5 -19 -11 -9 -9 -22 -8 -53 5 -51 20 -96 20 -135 0z m133 -32
c9 -7 12 -40 10 -132 l-3 -124 -30 -17 c-56 -33 -82 -34 -109 -4 -13 14 -30
48 -36 76 -28 114 23 209 112 209 23 0 49 -4 56 -8z"/>
<path d="M9975 3716 c-38 -17 -80 -62 -94 -99 -6 -16 -11 -57 -11 -91 0 -69
20 -111 73 -150 37 -27 136 -29 185 -3 40 22 43 40 5 30 -113 -31 -203 24
-203 122 l0 35 125 0 c139 0 135 -2 115 71 -15 55 -60 91 -117 96 -28 2 -61
-3 -78 -11z m68 -30 c39 -16 63 -42 72 -78 l7 -28 -96 0 c-70 0 -96 3 -96 13
0 24 58 104 78 107 1 0 17 -6 35 -14z"/>
<path d="M10468 3716 c-16 -12 -16 -15 2 -52 17 -32 20 -59 20 -171 l0 -133
30 0 30 0 0 139 c0 139 0 140 26 160 32 25 86 27 105 5 10 -12 15 -59 18 -160
l3 -144 30 0 29 0 -3 161 -3 161 -28 24 c-44 38 -100 31 -155 -19 l-22 -21
-33 31 c-27 27 -34 30 -49 19z"/>
<path d="M10913 3714 c-52 -19 -61 -48 -11 -33 49 14 101 11 126 -7 18 -12 22
-25 22 -70 0 -35 -4 -56 -12 -58 -7 -2 -40 -9 -72 -16 -119 -25 -158 -121 -67
-169 31 -17 79 -7 121 24 l34 25 31 -30 c27 -27 33 -29 50 -17 17 13 17 15 2
38 -13 18 -17 46 -17 114 -1 165 -22 206 -112 211 -31 2 -71 -3 -95 -12z m137
-234 c0 -46 -3 -52 -32 -70 -40 -24 -56 -25 -80 -3 -22 20 -24 66 -3 83 16 13
82 39 103 40 8 0 12 -16 12 -50z"/>
<path d="M11428 3716 c-16 -12 -16 -15 2 -52 17 -32 20 -59 20 -171 l0 -133
30 0 29 0 3 141 c3 139 4 142 28 159 42 30 77 33 100 10 18 -18 20 -33 20
-165 l0 -145 35 0 34 0 3 148 3 147 37 18 c44 22 81 15 97 -19 6 -15 11 -81
11 -159 l0 -135 30 0 30 0 0 145 c0 184 -17 225 -95 225 -27 0 -99 -33 -110
-50 -4 -6 -19 3 -36 21 -26 28 -34 31 -73 27 -23 -3 -60 -17 -82 -31 l-38 -27
-31 29 c-26 25 -33 28 -47 17z"/>
<path d="M12135 3712 c-77 -37 -105 -86 -105 -186 0 -49 5 -70 23 -96 46 -69
107 -91 187 -70 82 22 140 104 140 200 0 45 -37 118 -72 144 -39 28 -122 32
-173 8z m116 -22 c27 -15 48 -60 55 -123 15 -125 -60 -215 -151 -181 -45 18
-72 158 -44 231 25 68 88 100 140 73z"/>
<path d="M12893 3713 c-52 -18 -61 -47 -11 -32 18 5 51 9 74 9 53 0 75 -24 82
-89 5 -54 6 -53 -73 -66 -125 -21 -175 -115 -90 -171 31 -20 75 -13 126 21
l37 24 23 -25 c40 -42 85 -25 55 21 -12 18 -16 50 -16 128 0 57 -5 119 -11
137 -20 56 -106 75 -196 43z m145 -230 c3 -37 -1 -44 -31 -67 -19 -14 -43 -26
-55 -26 -23 0 -52 34 -52 62 0 23 37 56 75 67 50 15 60 10 63 -36z"/>
<path d="M8930 3540 l0 -180 35 0 35 0 0 180 0 180 -35 0 -35 0 0 -180z"/>
<path d="M9500 3581 c0 -76 5 -152 11 -170 23 -65 107 -77 169 -24 l31 26 32
-31 c28 -27 34 -29 50 -17 18 13 18 14 0 41 -15 23 -19 53 -21 171 l-4 143
-29 0 -29 0 0 -144 0 -145 -29 -20 c-35 -25 -83 -27 -102 -5 -10 12 -15 59
-18 165 l-3 149 -29 0 -29 0 0 -139z"/>
</g>
</svg>
